<svg width="28" height="28" viewBox="0 0 28 28" fill="none" xmlns="http://www.w3.org/2000/svg">
<path d="M13.9999 22.2717C13.8188 22.2717 13.6402 22.2295 13.4782 22.1485C13.3162 22.0675 13.1753 21.9499 13.0666 21.805L9.84659 17.5L7.20992 17.0567C5.85177 16.8309 4.61726 16.132 3.72478 15.0837C2.83231 14.0353 2.3394 12.7051 2.33325 11.3284V5.93835C2.33411 5.75326 2.37899 5.57103 2.46419 5.40671C2.54939 5.24239 2.67247 5.10071 2.82325 4.99335C2.97383 4.88689 3.1475 4.81763 3.33002 4.79127C3.51253 4.7649 3.6987 4.78218 3.87325 4.84169L6.64992 5.76335C7.19153 5.93902 7.76723 5.98303 8.32925 5.89172C8.89127 5.80042 9.42343 5.57644 9.88159 5.23835L10.7683 4.57335C11.7067 3.88874 12.8383 3.51984 13.9999 3.51984C15.1615 3.51984 16.2931 3.88874 17.2316 4.57335L18.1183 5.25002C18.5787 5.58357 19.1112 5.80388 19.6727 5.89307C20.2342 5.98226 20.8088 5.93782 21.3499 5.76335L24.1266 4.84169C24.3011 4.78218 24.4873 4.7649 24.6698 4.79127C24.8523 4.81763 25.026 4.88689 25.1766 4.99335C25.3274 5.10071 25.4504 5.24239 25.5356 5.40671C25.6208 5.57103 25.6657 5.75326 25.6666 5.93835V11.3284C25.6782 11.5304 25.6782 11.733 25.6666 11.935C25.649 12.0882 25.6013 12.2365 25.5264 12.3713C25.4515 12.5061 25.3508 12.6248 25.23 12.7207C25.1092 12.8166 24.9707 12.8877 24.8224 12.9301C24.6741 12.9724 24.519 12.9851 24.3658 12.9675C24.2125 12.9499 24.0643 12.9023 23.9295 12.8274C23.7947 12.7525 23.676 12.6517 23.5801 12.5309C23.4842 12.4101 23.4131 12.2717 23.3707 12.1234C23.3284 11.9751 23.3156 11.8199 23.3333 11.6667C23.3445 11.5464 23.3445 11.4253 23.3333 11.305V7.56002L22.0849 7.98002C21.1857 8.26991 20.2307 8.3428 19.2979 8.19275C18.3652 8.0427 17.4812 7.67395 16.7183 7.11669L15.8316 6.44002C15.2993 6.05303 14.658 5.84459 13.9999 5.84459C13.3418 5.84459 12.7006 6.05303 12.1683 6.44002L11.2816 7.10502C10.5193 7.66339 9.63576 8.0337 8.70313 8.18576C7.7705 8.33782 6.81513 8.26732 5.91492 7.98002L4.66659 7.56002V11.3284C4.65535 12.1656 4.94462 12.9791 5.4819 13.6212C6.01918 14.2634 6.76887 14.6917 7.59492 14.8284L10.6866 15.3417C10.9832 15.3879 11.2507 15.5467 11.4333 15.785L13.9999 19.1684L16.5666 15.7384C16.7492 15.5 17.0166 15.3412 17.3133 15.295L20.5916 14.7467C20.7455 14.7016 20.907 14.6888 21.0661 14.7089C21.2252 14.7291 21.3784 14.7818 21.5161 14.8638C21.6539 14.9459 21.7733 15.0554 21.8669 15.1856C21.9605 15.3158 22.0262 15.4639 22.0599 15.6207C22.0937 15.7775 22.0948 15.9395 22.0631 16.0967C22.0315 16.2539 21.9677 16.4028 21.8759 16.5343C21.7841 16.6658 21.6662 16.7769 21.5295 16.8608C21.3929 16.9446 21.2404 16.9994 21.0816 17.0217L20.8016 17.08L18.1533 17.5L14.9333 21.805C14.8246 21.9499 14.6837 22.0675 14.5217 22.1485C14.3597 22.2295 14.181 22.2717 13.9999 22.2717Z" fill="#615D5D"/>
<path d="M11.6666 13.0667C11.479 13.0638 11.2949 13.0158 11.1299 12.9267C10.2789 12.5507 9.32793 12.4646 8.42322 12.6817C8.27193 12.7208 8.11431 12.7291 7.95973 12.7062C7.80515 12.6833 7.65675 12.6295 7.52335 12.5481C7.38995 12.4667 7.27426 12.3593 7.18315 12.2324C7.09204 12.1054 7.02736 11.9614 6.99297 11.809C6.95857 11.6565 6.95515 11.4987 6.98291 11.3449C7.01067 11.1911 7.06904 11.0445 7.15457 10.9137C7.24009 10.7829 7.35102 10.6706 7.48077 10.5835C7.61052 10.4964 7.75645 10.4363 7.90989 10.4067C9.35172 10.0757 10.8628 10.2359 12.2032 10.8617C12.4366 10.9812 12.6229 11.1759 12.7321 11.4144C12.8412 11.6528 12.8669 11.9211 12.8049 12.1759C12.7428 12.4307 12.5968 12.6572 12.3903 12.8188C12.1837 12.9804 11.9288 13.0677 11.6666 13.0667Z" fill="#615D5D"/>
<path d="M16.3334 13.0667C16.0702 13.0704 15.8134 12.985 15.6048 12.8243C15.3963 12.6637 15.2482 12.4372 15.1846 12.1817C15.1211 11.9262 15.1458 11.6567 15.2549 11.417C15.3639 11.1774 15.5507 10.9817 15.7851 10.8617C17.1258 10.2367 18.6365 10.0766 20.0784 10.4067C20.2351 10.4321 20.3849 10.4892 20.5188 10.5746C20.6526 10.6599 20.7676 10.7716 20.8568 10.903C20.9459 11.0343 21.0073 11.1824 21.0373 11.3383C21.0672 11.4942 21.065 11.6545 21.0308 11.8095C20.9967 11.9645 20.9312 12.1109 20.8385 12.2397C20.7458 12.3686 20.6278 12.4771 20.4916 12.5588C20.3555 12.6404 20.2042 12.6934 20.0469 12.7145C19.8896 12.7357 19.7296 12.7245 19.5768 12.6817C18.6721 12.4646 17.7211 12.5507 16.8701 12.9267C16.7051 13.0158 16.521 13.0638 16.3334 13.0667Z" fill="#615D5D"/>
<path d="M24.4999 24.5C24.1905 24.5 23.8938 24.3771 23.675 24.1583C23.4562 23.9395 23.3333 23.6427 23.3333 23.3333V11.7716C23.3333 11.4622 23.4562 11.1655 23.675 10.9467C23.8938 10.7279 24.1905 10.605 24.4999 10.605C24.8093 10.605 25.1061 10.7279 25.3249 10.9467C25.5437 11.1655 25.6666 11.4622 25.6666 11.7716V23.3333C25.6666 23.6427 25.5437 23.9395 25.3249 24.1583C25.1061 24.3771 24.8093 24.5 24.4999 24.5Z" fill="#615D5D"/>
</svg>
