<svg width="24" height="26" viewBox="0 0 24 26" fill="none" xmlns="http://www.w3.org/2000/svg">
<path d="M22.6354 16.8299C18.561 13.7433 17.9536 8.6188 21.1235 4.07861C21.1822 3.9945 21.2087 3.89053 21.1976 3.78715C21.1865 3.68377 21.1387 3.58845 21.0635 3.51994L17.8635 0.603269C17.7871 0.533678 17.6882 0.496918 17.5868 0.500431C17.4854 0.503944 17.389 0.547467 17.3173 0.622189C16.6395 1.38328 15.8162 1.98808 14.9004 2.39763C13.9846 2.80718 12.9966 3.01241 12.0001 3.00011C11.0035 3.01241 10.0155 2.80718 9.09973 2.39763C8.18394 1.98808 7.36065 1.38328 6.68285 0.622189C6.61108 0.547459 6.51472 0.503929 6.4133 0.500414C6.31188 0.496899 6.21296 0.53366 6.13658 0.603256L2.93658 3.51992C2.86144 3.58844 2.81362 3.68376 2.80252 3.78714C2.79143 3.89052 2.81786 3.99449 2.87662 4.0786C6.04654 8.6188 5.43912 13.7433 1.3647 16.8298C1.31958 16.8641 1.28183 16.9077 1.25388 16.9581C1.22592 17.0084 1.20839 17.0643 1.20239 17.1221C1.19639 17.1799 1.20207 17.2383 1.21906 17.2937C1.23605 17.3491 1.26397 17.4002 1.30103 17.4437L4.50103 21.1937C4.53726 21.2361 4.58144 21.2703 4.63084 21.2943C4.68025 21.3184 4.73384 21.3316 4.78833 21.3332C4.84293 21.336 4.89748 21.3266 4.94829 21.3056C4.99909 21.2846 5.04498 21.2524 5.08285 21.2114L5.92152 20.3379C6.91272 21.9159 8.06098 22.3499 9.08402 22.7366C10.192 23.1555 11.0672 23.4863 11.6205 25.2153C11.6471 25.2982 11.6981 25.3703 11.7662 25.4215C11.8343 25.4726 11.9161 25.5001 12 25.5001C12.084 25.5001 12.1658 25.4726 12.2339 25.4215C12.302 25.3703 12.353 25.2982 12.3795 25.2153C12.9329 23.4864 13.8081 23.1555 14.9161 22.7366C15.9391 22.3499 17.0873 21.9159 18.0786 20.338L18.9172 21.2114C18.9552 21.2523 19.0011 21.2844 19.0519 21.3054C19.1027 21.3264 19.1572 21.3359 19.2118 21.3332C19.2663 21.3316 19.3199 21.3183 19.3693 21.2943C19.4187 21.2703 19.4629 21.2361 19.4991 21.1936L22.6991 17.4436C22.7361 17.4002 22.7641 17.3491 22.7811 17.2937C22.798 17.2383 22.8037 17.1799 22.7977 17.122C22.7917 17.0642 22.7742 17.0084 22.7462 16.9581C22.7183 16.9077 22.6805 16.8641 22.6354 16.8299ZM17.6133 1.48257L20.2653 3.89956C18.7425 6.20761 18.1157 8.64141 18.3367 10.9168H13.2001V3.73886C14.8629 3.49094 16.4078 2.70112 17.6133 1.48257ZM3.73482 3.89956L6.38677 1.48257C7.59231 2.70112 9.13718 3.49094 10.8001 3.73886V10.9168H5.66343C5.88445 8.64141 5.2576 6.20761 3.73482 3.89956ZM9.35689 21.9534C8.32251 21.5623 7.25298 21.1581 6.34966 19.4643C6.31957 19.408 6.27734 19.3597 6.22631 19.3232C6.17527 19.2868 6.11681 19.2631 6.05552 19.2542C6.03714 19.2515 6.01861 19.2502 6.00005 19.2501C5.94753 19.2501 5.89552 19.2609 5.84699 19.2818C5.79847 19.3028 5.75438 19.3335 5.71725 19.3722L4.81725 20.3097L2.18638 17.2268C3.43321 16.2289 4.41688 14.9181 5.04551 13.4168H10.8001V22.6409C10.3467 22.3532 9.8623 22.1224 9.35689 21.9534ZM12.0001 24.0247C11.8852 23.8062 11.7513 23.5991 11.6001 23.4061V13.0001C11.6001 12.8896 11.5579 12.7836 11.4829 12.7055C11.4079 12.6273 11.3061 12.5834 11.2001 12.5834H5.33816C5.41945 12.3094 5.48746 12.0313 5.54192 11.7501H11.2001C11.3061 11.7501 11.4079 11.7062 11.4829 11.6281C11.5579 11.5499 11.6001 11.4439 11.6001 11.3334V3.81513C11.7334 3.82131 11.8643 3.83344 12.0001 3.83344C12.1358 3.83344 12.2668 3.82131 12.4001 3.81513V11.3334C12.4001 11.4439 12.4422 11.5499 12.5172 11.6281C12.5922 11.7062 12.694 11.7501 12.8001 11.7501H18.4582C18.5126 12.0313 18.5807 12.3094 18.6619 12.5834H12.8001C12.694 12.5834 12.5922 12.6273 12.5172 12.7055C12.4422 12.7836 12.4001 12.8896 12.4001 13.0001V23.4061C12.2488 23.5991 12.1149 23.8061 12.0001 24.0247ZM19.1829 20.3097L18.2829 19.3722C18.2391 19.3266 18.1857 19.2922 18.1271 19.2717C18.0684 19.2513 18.0059 19.2453 17.9446 19.2542C17.8833 19.2631 17.8248 19.2867 17.7738 19.3232C17.7227 19.3597 17.6805 19.408 17.6504 19.4644C16.7471 21.1581 15.6776 21.5623 14.6432 21.9534C14.1378 22.1225 13.6534 22.3532 13.2001 22.6409V13.4168H18.9546C19.5832 14.9181 20.5669 16.2289 21.8137 17.2268L19.1829 20.3097Z" fill="#615D5D"/>
</svg>
