<svg width="25" height="25" viewBox="0 0 25 25" fill="none" xmlns="http://www.w3.org/2000/svg">
<path d="M17.2198 4.23706C19.8311 4.23706 21.9473 6.35327 21.9473 8.95674C21.9473 13.6843 17.2198 15.9763 12.5 20.696C11.3077 19.5056 10.1158 18.4699 9.00054 17.5105H11.3496V15.298H8.69482V12.6433H6.48291V15.2912C4.44873 13.3786 3.05273 11.5275 3.05273 8.95674C3.05273 6.35327 5.16895 4.23706 7.77246 4.23706C10.1362 4.23706 11.3179 5.41089 12.5 7.77461C13.6822 5.41089 14.8638 4.23706 17.2198 4.23706Z" fill="#E4667B"/>
<path d="M3.96445 9.48774C3.96445 6.88423 6.08066 4.76802 8.68418 4.76802C9.40444 4.76802 10.0145 4.87764 10.5487 5.09609C9.81616 4.52334 8.93838 4.2373 7.7727 4.2373C5.16919 4.2373 3.05298 6.35352 3.05298 8.95698C3.05298 11.5278 4.44897 13.3789 6.48315 15.2915V14.9191C4.95503 13.3081 3.96445 11.6532 3.96445 9.48774Z" fill="#DE99A8"/>
<path d="M11.3496 15.2981V17.5105H9.00054H8.69482V20.1648H6.48296V17.5105H3.82812V15.2981H6.48296V15.2913V12.6433H8.69482V15.2981H11.3496Z" fill="#4DD0E2"/>
<path d="M4.25132 15.7213H6.90615V15.7145V13.0665H8.69482V12.6433H6.48296V15.2913V15.2981H3.82812V17.5105H4.25132V15.7213Z" fill="#15E2F1"/>
<path d="M13.1197 12.1125H12.2344V12.9973H13.1197V12.1125Z" fill="#4DD0E2"/>
<path d="M13.1197 10.7854H12.2344V11.6702H13.1197V10.7854Z" fill="#4DD0E2"/>
<path d="M13.1197 9.45776H12.2344V10.343H13.1197V9.45776Z" fill="#4DD0E2"/>
<path d="M16.6594 13.7727C16.5805 13.7727 16.5031 13.7345 16.4561 13.6639C16.3813 13.5517 16.4116 13.4002 16.5238 13.3253C18.0946 12.2781 18.8584 10.8293 18.7939 9.01933C18.7449 7.64745 18.2156 6.56908 18.2103 6.55839C18.1503 6.43774 18.1992 6.29115 18.3198 6.23105C18.4403 6.17099 18.5869 6.21962 18.6471 6.34018C18.6706 6.3873 19.2244 7.51034 19.2812 8.98403C19.3341 10.3583 18.9456 12.2976 16.7946 13.7316C16.753 13.7594 16.706 13.7727 16.6594 13.7727Z" fill="#DE99A8"/>
<path d="M21.5259 20.7629H16.6592C16.5243 20.7629 16.415 20.6537 16.415 20.5188C16.415 20.3839 16.5243 20.2747 16.6592 20.2747H21.5259C21.6607 20.2747 21.77 20.3839 21.77 20.5188C21.77 20.6537 21.6607 20.7629 21.5259 20.7629Z" fill="#E4667B"/>
</svg>
