<svg width="29" height="30" viewBox="0 0 29 30" fill="none" xmlns="http://www.w3.org/2000/svg">
<g clip-path="url(#clip0_230_7)">
<path fill-rule="evenodd" clip-rule="evenodd" d="M22.3906 16.8125C22.3906 16.5234 22.2529 16.2515 22.02 16.0812C21.7862 15.9108 21.4862 15.8609 21.2107 15.9488L14.2344 18.1601L7.25806 15.9488C6.98256 15.8609 6.68259 15.9108 6.44878 16.0812C6.21588 16.2515 6.07812 16.5234 6.07812 16.8125V22.25C6.07812 22.7502 6.48413 23.1562 6.98438 23.1562H21.4844C21.9846 23.1562 22.3906 22.7502 22.3906 22.25V16.8125ZM20.5781 18.0504V21.3438H7.89062V18.0504L13.9607 19.9744C14.1383 20.0315 14.3304 20.0315 14.5081 19.9744L20.5781 18.0504ZM18.7638 5.082C18.7819 4.77297 18.6397 4.47663 18.3886 4.29538C18.1367 4.11503 17.8104 4.07516 17.5232 4.19025L15.2575 5.0965C14.9132 5.23334 14.6875 5.56684 14.6875 5.9375V15.9062C14.6875 16.1935 14.8243 16.4645 15.0554 16.6349C15.2865 16.8062 15.5856 16.8569 15.8602 16.7726L21.7508 14.9601C22.1314 14.8432 22.3906 14.4916 22.3906 14.0938V8.65625C22.3906 8.156 21.9846 7.75 21.4844 7.75C20.676 7.75 19.9773 7.52706 19.4879 7.08028C19.0203 6.65253 18.7656 6.02359 18.7656 5.24966C18.7656 5.19347 18.7611 5.13728 18.7638 5.082ZM10.9456 4.19025C10.6583 4.07516 10.3321 4.11503 10.0801 4.29538C9.82909 4.47663 9.68681 4.77297 9.70494 5.082C9.70766 5.13728 9.70312 5.19347 9.70312 5.24966C9.70312 6.02359 9.44847 6.65253 8.98084 7.08028C8.49147 7.52706 7.79275 7.75 6.98438 7.75C6.48413 7.75 6.07812 8.156 6.07812 8.65625V14.0938C6.07812 14.4916 6.33731 14.8432 6.71794 14.9601L12.6086 16.7726C12.8832 16.8569 13.1822 16.8062 13.4133 16.6349C13.6444 16.4645 13.7812 16.1935 13.7812 15.9062V5.9375C13.7812 5.56684 13.5556 5.23334 13.2112 5.0965L10.9456 4.19025ZM17.0682 6.32356C17.2585 7.17725 17.6799 7.88231 18.2645 8.417C18.868 8.96891 19.6574 9.34409 20.5781 9.49181V13.424L16.5 14.6792V6.55103L17.0682 6.32356ZM11.4005 6.32356L11.9688 6.55103V14.6792L7.89062 13.424V9.49181C8.81138 9.34409 9.60072 8.96891 10.2043 8.417C10.7888 7.88231 11.2102 7.17725 11.4005 6.32356ZM9.68591 1.58388C9.73847 1.31744 9.66959 1.04194 9.49741 0.831687C9.32522 0.621437 9.06875 0.5 8.79688 0.5C7.33691 0.5 5.20359 1.56031 3.74997 2.89069C2.67063 3.87759 2 5.024 2 5.9375C2 6.43775 2.406 6.84375 2.90625 6.84375H7.89062L8.77966 6.11513L9.68591 1.58388ZM19.6719 0.5C19.4 0.5 19.1435 0.621437 18.9713 0.831687C18.7992 1.04194 18.7303 1.31744 18.7828 1.58388L19.6891 6.11513L20.5781 6.84375H25.5625C26.0627 6.84375 26.4688 6.43775 26.4688 5.9375C26.4688 5.024 25.7981 3.87759 24.7188 2.89069C23.2652 1.56031 21.1318 0.5 19.6719 0.5ZM7.1475 5.03125H4.233C4.43419 4.76028 4.68703 4.48931 4.9725 4.22831C5.74009 3.52597 6.73425 2.88253 7.64412 2.54994L7.1475 5.03125ZM21.3212 5.03125L20.8246 2.54994C21.7345 2.88253 22.7287 3.52687 23.4963 4.22831C23.7817 4.48931 24.0346 4.76028 24.2358 5.03125H21.3212Z" fill="#615D5D"/>
</g>
<defs>
<clipPath id="clip0_230_7">
<rect width="29" height="29" fill="white" transform="translate(0 0.5)"/>
</clipPath>
</defs>
</svg>
