<svg width="26" height="26" viewBox="0 0 26 26" fill="none" xmlns="http://www.w3.org/2000/svg">
<g clip-path="url(#clip0_223_13)">
<path d="M9.80692 21.9522L9.50629 21.4443C9.43381 21.3199 9.33729 21.2112 9.22234 21.1245C9.1074 21.0377 8.97634 20.9748 8.8368 20.9392C8.69727 20.9037 8.55205 20.8963 8.40962 20.9174C8.26719 20.9386 8.1304 20.9879 8.00723 21.0625L6.21161 22.135C5.95911 22.2873 5.77563 22.5317 5.69984 22.8166C5.62405 23.1016 5.66188 23.4049 5.80536 23.6625L6.23192 24.4262L8.80348 23.7722L9.80692 21.9522Z" fill="#C0C9CC"/>
<path d="M16.1931 21.9522L16.4937 21.4443C16.5662 21.3199 16.6627 21.2112 16.7777 21.1245C16.8926 21.0377 17.0237 20.9748 17.1632 20.9392C17.3028 20.9037 17.448 20.8963 17.5904 20.9174C17.7328 20.9386 17.8696 20.9879 17.9928 21.0625L19.7884 22.135C20.0409 22.2873 20.2244 22.5317 20.3002 22.8166C20.376 23.1016 20.3382 23.4049 20.1947 23.6625L19.7884 24.4262L17.1437 23.7397L16.1931 21.9522Z" fill="#C0C9CC"/>
<path d="M9.52255 23.0369L9.66068 22.0416L10.8794 21.3144V20.2703H15.1004V21.3144L16.3191 22.0416L16.4572 23.0369L18.3504 23.2278C19.3944 23.8656 20.2435 24.7635 20.4832 25.97C20.5015 26.0631 20.4993 26.1591 20.4768 26.2513C20.4543 26.3435 20.4121 26.4297 20.3529 26.5039C20.2938 26.5781 20.2192 26.6385 20.1344 26.681C20.0495 26.7235 19.9565 26.7471 19.8616 26.75H16.4329L13.0001 25.5313L9.56724 26.75H6.13849C6.04192 26.75 5.94654 26.7286 5.85921 26.6874C5.77188 26.6462 5.69476 26.5861 5.63339 26.5116C5.57203 26.437 5.52794 26.3498 5.50429 26.2561C5.48064 26.1625 5.47802 26.0648 5.49661 25.97C5.7363 24.7513 6.58536 23.8656 7.62943 23.2278L9.52255 23.0369Z" fill="#E0E9EE"/>
<path d="M13.4753 20.2703V21.7166L14.7185 22.4438L16.7497 23.626C17.7978 24.2678 18.6469 25.1656 18.8866 26.3681C18.9129 26.4966 18.8987 26.63 18.846 26.75H19.8697C19.9663 26.75 20.0617 26.7286 20.149 26.6874C20.2363 26.6462 20.3134 26.5861 20.3748 26.5116C20.4362 26.437 20.4803 26.3498 20.5039 26.2561C20.5276 26.1625 20.5302 26.0648 20.5116 25.97C20.2719 24.7513 19.4228 23.8656 18.3788 23.2278L16.4857 23.0369L16.3475 22.0416L15.1288 21.3144V20.2703H13.4753Z" fill="#D0E1E8"/>
<path d="M16.4328 26.75C16.4328 26.75 16.3638 25.0072 18.3706 23.2278L16.3394 22.0416C15.4353 22.8916 14.241 23.3649 13 23.3649C11.759 23.3649 10.5648 22.8916 9.66064 22.0416L7.62939 23.2278C9.63627 25.0072 9.56721 26.75 9.56721 26.75H16.4328Z" fill="#615D5D"/>
<path d="M16.3393 22.0416C16.0268 22.334 15.6771 22.5839 15.2993 22.785L16.7415 23.6259C17.0035 23.786 17.2534 23.9653 17.489 24.1622C17.7526 23.8248 18.0463 23.512 18.3665 23.2278L16.3393 22.0416Z" fill="#C0C9CC"/>
<path d="M9.83527 8.28595C9.25681 8.70864 8.7692 9.24328 8.40142 9.85811C8.03363 10.4729 7.79318 11.1554 7.69434 11.865L7.84871 15.5578C7.90843 15.9738 8.01192 16.3823 8.15746 16.7766C9.0309 18.9744 10.8712 20.9203 13 20.9203C15.1287 20.9203 16.965 18.9744 17.8425 16.7766C17.988 16.3823 18.0915 15.9738 18.1512 15.5578L18.3056 11.865C18.2067 11.1554 17.9663 10.4729 17.5985 9.85811C17.2307 9.24328 16.7431 8.70864 16.1646 8.28595H9.83527Z" fill="#F0F4F7"/>
<path d="M14.5397 8.28595C15.1182 8.70864 15.6058 9.24328 15.9735 9.85811C16.3413 10.4729 16.5818 11.1554 16.6806 11.865L16.5262 15.5578C16.4665 15.9738 16.363 16.3823 16.2175 16.7766C15.4537 18.69 13.9628 20.4328 12.1875 20.8391C12.4539 20.9009 12.7265 20.9322 13 20.9325C15.1287 20.9325 16.965 18.9866 17.8425 16.7888C17.988 16.3945 18.0915 15.986 18.1512 15.57L18.3056 11.8772C18.2068 11.1676 17.9663 10.4851 17.5985 9.8703C17.2308 9.25546 16.7432 8.72082 16.1647 8.29814L14.5397 8.28595Z" fill="#E0E9EE"/>
<path d="M7.69435 11.869L11.05 11.0565C12.3316 10.7478 13.6683 10.7478 14.95 11.0565L18.3056 11.869C18.4341 11.9 18.5485 11.9734 18.6303 12.0773C18.7121 12.1812 18.7566 12.3096 18.7565 12.4418V14.9443C18.7568 15.0771 18.7125 15.2061 18.6307 15.3107C18.549 15.4152 18.4345 15.4894 18.3056 15.5212L14.95 16.3337C13.6683 16.6424 12.3316 16.6424 11.05 16.3337L7.69435 15.5212C7.56547 15.4894 7.45099 15.4152 7.36924 15.3107C7.28748 15.2061 7.24318 15.0771 7.24341 14.9443V12.4418C7.24337 12.3096 7.28783 12.1812 7.36962 12.0773C7.45142 11.9734 7.5658 11.9 7.69435 11.869Z" fill="#E0E9EE"/>
<path d="M12.9999 7.25C11.8615 7.24904 10.7527 7.61202 9.83521 8.28594C10.6794 9.1161 11.8159 9.58132 12.9999 9.58132C14.1839 9.58132 15.3204 9.1161 16.1646 8.28594C15.2471 7.61202 14.1383 7.24904 12.9999 7.25Z" fill="#615D5D"/>
<path d="M13 7.25001C12.728 7.24964 12.4564 7.27001 12.1875 7.31094C13.3741 7.48858 14.4661 8.06108 15.2872 8.93594C15.6056 8.75029 15.9003 8.52656 16.1647 8.26969C15.2452 7.60156 14.1365 7.24433 13 7.25001Z" fill="#C0C9CC"/>
<path d="M16.8308 11.5115C16.9266 11.5821 17.0039 11.6747 17.0562 11.7815C17.1086 11.8882 17.1344 12.0061 17.1314 12.125V15.2937C17.1321 15.4099 17.1052 15.5247 17.0529 15.6285C17.0007 15.7323 16.9245 15.8222 16.8308 15.8909L18.3055 15.5375C18.4334 15.5066 18.5472 15.4339 18.629 15.3308C18.7107 15.2277 18.7556 15.1003 18.7564 14.9687V12.4418C18.7565 12.3096 18.712 12.1812 18.6302 12.0773C18.5484 11.9734 18.434 11.9 18.3055 11.869L16.8308 11.5115Z" fill="#D0E1E8"/>
<path d="M5.31779 26.7703C5.41486 26.8938 5.53805 26.9942 5.67852 27.0645C5.81899 27.1347 5.97327 27.173 6.13029 27.1765H19.8615C20.0186 27.1773 20.1738 27.143 20.316 27.0762C20.4581 27.0094 20.5836 26.9117 20.6832 26.7903C20.7828 26.6689 20.8541 26.5268 20.8919 26.3743C20.9297 26.2219 20.9329 26.0629 20.9015 25.909C20.7895 25.374 20.5682 24.8678 20.2515 24.4222L20.5522 23.8778C20.7475 23.5284 20.799 23.1166 20.6959 22.7299C20.5927 22.3431 20.343 22.0117 19.9997 21.8059L18.2 20.7131C18.0313 20.6104 17.8436 20.5427 17.6482 20.5141C17.4527 20.4855 17.2535 20.4965 17.0625 20.5465C16.8703 20.5952 16.6897 20.6817 16.5314 20.801C16.3731 20.9203 16.2401 21.0699 16.1403 21.2412L16.0468 21.3997L15.5065 21.0828V20.4815C16.7318 19.5764 17.6732 18.3404 18.2203 16.9187C18.3476 16.5818 18.4428 16.2336 18.5047 15.8787C18.6981 15.811 18.8654 15.6845 18.9834 15.517C19.1014 15.3495 19.1641 15.1493 19.1628 14.9444V12.4419C19.1633 12.2669 19.1173 12.095 19.0295 11.9436C18.9417 11.7923 18.8152 11.667 18.6631 11.5806C18.426 10.2511 17.7286 9.04743 16.6933 8.18038C15.6579 7.31333 14.3505 6.8382 13 6.8382C11.6495 6.8382 10.3421 7.31333 9.30669 8.18038C8.2713 9.04743 7.57398 10.2511 7.33685 11.5806C7.18471 11.667 7.05827 11.7923 6.97047 11.9436C6.88267 12.095 6.83666 12.2669 6.83716 12.4419V14.9444C6.8358 15.1493 6.89851 15.3495 7.0165 15.517C7.1345 15.6845 7.30189 15.811 7.49529 15.8787C7.55664 16.2337 7.65187 16.5819 7.77966 16.9187C8.32674 18.3404 9.26819 19.5764 10.4934 20.4815V21.0828L9.9531 21.3997L9.85966 21.2412C9.75985 21.0699 9.62689 20.9203 9.46854 20.801C9.3102 20.6817 9.12965 20.5952 8.93747 20.5465C8.7464 20.4965 8.54721 20.4855 8.35177 20.5141C8.15634 20.5427 7.96867 20.6104 7.79997 20.7131L6.00029 21.7856C5.65694 21.9914 5.40722 22.3228 5.30408 22.7096C5.20094 23.0963 5.25249 23.5081 5.44779 23.8575L5.74841 24.4019C5.43094 24.8485 5.20961 25.3562 5.09841 25.8928C5.06772 26.0462 5.07148 26.2045 5.10942 26.3562C5.14736 26.508 5.21853 26.6494 5.31779 26.7703ZM5.94747 26.2544C5.9235 26.2261 5.90629 26.1928 5.89714 26.1569C5.88799 26.121 5.88714 26.0835 5.89466 26.0472C6.00683 25.5687 6.21429 25.1178 6.50466 24.7213C6.79503 24.3248 7.16235 23.991 7.58466 23.7397C8.35737 24.4248 8.89467 25.336 9.12029 26.3437H6.13841C6.10197 26.3438 6.06597 26.3358 6.03296 26.3204C5.99996 26.3049 5.97077 26.2824 5.94747 26.2544ZM9.60372 22.5372C10.5533 23.3297 11.7509 23.7638 12.9878 23.7638C14.2246 23.7638 15.4223 23.3297 16.3718 22.5372L17.6881 23.305C16.8352 24.1179 16.2656 25.183 16.0631 26.3437H9.94091C9.73842 25.183 9.16883 24.1179 8.31591 23.305L9.60372 22.5372ZM20.0403 26.2544C20.017 26.2824 19.9878 26.3049 19.9548 26.3204C19.9218 26.3358 19.8858 26.3438 19.8493 26.3437H16.8797C17.1042 25.3355 17.6417 24.4241 18.4153 23.7397C18.8354 23.9936 19.201 24.3283 19.4911 24.7244C19.7812 25.1204 19.9899 25.57 20.1053 26.0472C20.1128 26.0835 20.112 26.121 20.1028 26.1569C20.0937 26.1928 20.0764 26.2261 20.0525 26.2544H20.0403ZM16.8309 21.6515C16.9191 21.4963 17.0651 21.3824 17.2372 21.3347C17.3243 21.311 17.4153 21.3053 17.5047 21.3178C17.5941 21.3304 17.68 21.361 17.7572 21.4078L19.5812 22.4844C19.7441 22.581 19.8627 22.7374 19.9121 22.9203C19.9614 23.1031 19.9374 23.298 19.8453 23.4634L19.6909 23.7397C19.3164 23.3773 18.8989 23.0622 18.4478 22.8012L16.7497 21.81L16.8309 21.6515ZM7.78779 15.1272C7.74738 15.117 7.71165 15.0933 7.68653 15.0601C7.66141 15.0268 7.6484 14.986 7.64966 14.9444V12.4419C7.64933 12.4009 7.66276 12.361 7.68781 12.3286C7.71286 12.2962 7.74807 12.2731 7.78779 12.2631L11.1475 11.4506C12.3651 11.1581 13.6348 11.1581 14.8525 11.4506L18.2122 12.2631C18.2519 12.2731 18.2871 12.2962 18.3121 12.3286C18.3372 12.361 18.3506 12.4009 18.3503 12.4419V14.9444C18.3515 14.986 18.3385 15.0268 18.3134 15.0601C18.2883 15.0933 18.2526 15.117 18.2122 15.1272L18.0578 15.1637L14.8525 15.9356C13.6348 16.2282 12.3651 16.2282 11.1475 15.9356L7.78779 15.1272ZM15.4862 8.33467C14.7722 8.88025 13.8986 9.17582 13 9.17582C12.1014 9.17582 11.2277 8.88025 10.5137 8.33467C11.2663 7.88847 12.1251 7.65302 13 7.65302C13.8749 7.65302 14.7337 7.88847 15.4862 8.33467ZM9.8231 8.82217C10.71 9.57581 11.8361 9.98913 13 9.98811C14.1647 9.99014 15.2917 9.57509 16.1768 8.81811C16.9525 9.46667 17.5111 10.3371 17.7775 11.3125L15.0312 10.6625C13.6961 10.3413 12.3039 10.3413 10.9687 10.6625L8.22247 11.3125C8.48793 10.3378 9.04674 9.46843 9.8231 8.82217ZM8.53122 16.6181C8.46456 16.4503 8.41025 16.2779 8.36872 16.1022L10.9687 16.7237C12.3116 17.0488 13.7127 17.0488 15.0556 16.7237L17.6393 16.1022C17.5978 16.2779 17.5435 16.4503 17.4768 16.6181C16.705 18.5559 15.0393 20.5059 13.0081 20.5059C10.9768 20.5059 9.30716 18.5559 8.53122 16.6181ZM11.1028 21.6678C11.164 21.6315 11.2147 21.5797 11.2496 21.5177C11.2845 21.4557 11.3025 21.3855 11.3018 21.3144V20.9447C11.8327 21.1909 12.4108 21.3184 12.9959 21.3184C13.581 21.3184 14.1592 21.1909 14.69 20.9447V21.3144C14.6893 21.3855 14.7073 21.4557 14.7422 21.5177C14.7772 21.5797 14.8278 21.6315 14.889 21.6678L15.6284 22.074C14.8623 22.6352 13.9374 22.9377 12.9878 22.9377C12.0382 22.9377 11.1132 22.6352 10.3472 22.074L11.1028 21.6678ZM6.41466 22.4803L8.21435 21.4037C8.29155 21.357 8.37745 21.3264 8.46684 21.3138C8.55623 21.3012 8.64724 21.3069 8.73435 21.3306C8.90637 21.3783 9.05246 21.4923 9.1406 21.6475L9.23404 21.8059L7.53591 22.7931C7.08555 23.0568 6.66823 23.3732 6.29279 23.7356L6.13841 23.4594C6.0489 23.2924 6.02811 23.097 6.08046 22.9149C6.13282 22.7328 6.25418 22.5783 6.41872 22.4844L6.41466 22.4803Z" fill="#070809"/>
<path d="M8.97412 12.6044C8.86638 12.6044 8.76305 12.6472 8.68686 12.7234C8.61067 12.7995 8.56787 12.9029 8.56787 13.0106V14.3756C8.56787 14.4834 8.61067 14.5867 8.68686 14.6629C8.76305 14.7391 8.86638 14.7819 8.97412 14.7819C9.08187 14.7819 9.1852 14.7391 9.26138 14.6629C9.33757 14.5867 9.38037 14.4834 9.38037 14.3756V13.0106C9.38037 12.9029 9.33757 12.7995 9.26138 12.7234C9.1852 12.6472 9.08187 12.6044 8.97412 12.6044Z" fill="#070809"/>
<path d="M11.375 14.5259V12.8644C11.375 12.7566 11.3322 12.6533 11.256 12.5771C11.1798 12.5009 11.0765 12.4581 10.9688 12.4581C10.861 12.4581 10.7577 12.5009 10.6815 12.5771C10.6053 12.6533 10.5625 12.7566 10.5625 12.8644V14.5259C10.5625 14.6337 10.6053 14.737 10.6815 14.8132C10.7577 14.8894 10.861 14.9322 10.9688 14.9322C11.0765 14.9322 11.1798 14.8894 11.256 14.8132C11.3322 14.737 11.375 14.6337 11.375 14.5259Z" fill="#070809"/>
<path d="M13 15.375C13.1077 15.375 13.2111 15.3322 13.2873 15.256C13.3634 15.1798 13.4062 15.0765 13.4062 14.9688V12.4216C13.4062 12.3138 13.3634 12.2105 13.2873 12.1343C13.2111 12.0581 13.1077 12.0153 13 12.0153C12.8923 12.0153 12.7889 12.0581 12.7127 12.1343C12.6366 12.2105 12.5938 12.3138 12.5938 12.4216V14.9688C12.5938 15.0765 12.6366 15.1798 12.7127 15.256C12.7889 15.3322 12.8923 15.375 13 15.375Z" fill="#070809"/>
<path d="M15.0312 14.9322C15.139 14.9322 15.2423 14.8894 15.3185 14.8132C15.3947 14.737 15.4375 14.6337 15.4375 14.5259V12.8644C15.4375 12.7566 15.3947 12.6533 15.3185 12.5771C15.2423 12.5009 15.139 12.4581 15.0312 12.4581C14.9235 12.4581 14.8202 12.5009 14.744 12.5771C14.6678 12.6533 14.625 12.7566 14.625 12.8644V14.5259C14.625 14.6337 14.6678 14.737 14.744 14.8132C14.8202 14.8894 14.9235 14.9322 15.0312 14.9322Z" fill="#070809"/>
<path d="M17.0259 14.7819C17.1336 14.7819 17.237 14.7391 17.3131 14.6629C17.3893 14.5867 17.4321 14.4834 17.4321 14.3756V13.0106C17.4321 12.9029 17.3893 12.7995 17.3131 12.7234C17.237 12.6472 17.1336 12.6044 17.0259 12.6044C16.9181 12.6044 16.8148 12.6472 16.7386 12.7234C16.6624 12.7995 16.6196 12.9029 16.6196 13.0106V14.3756C16.6196 14.4834 16.6624 14.5867 16.7386 14.6629C16.8148 14.7391 16.9181 14.7819 17.0259 14.7819Z" fill="#070809"/>
<path d="M11.1597 18.5397C11.384 18.5397 11.5659 18.3578 11.5659 18.1334C11.5659 17.9091 11.384 17.7272 11.1597 17.7272C10.9353 17.7272 10.7534 17.9091 10.7534 18.1334C10.7534 18.3578 10.9353 18.5397 11.1597 18.5397Z" fill="#070809"/>
<path d="M13 18.5397C13.2244 18.5397 13.4062 18.3578 13.4062 18.1334C13.4062 17.9091 13.2244 17.7272 13 17.7272C12.7756 17.7272 12.5938 17.9091 12.5938 18.1334C12.5938 18.3578 12.7756 18.5397 13 18.5397Z" fill="#070809"/>
<path d="M14.8403 18.5397C15.0647 18.5397 15.2466 18.3578 15.2466 18.1334C15.2466 17.9091 15.0647 17.7272 14.8403 17.7272C14.616 17.7272 14.4341 17.9091 14.4341 18.1334C14.4341 18.3578 14.616 18.5397 14.8403 18.5397Z" fill="#070809"/>
</g>
<defs>
<clipPath id="clip0_223_13">
<rect width="26" height="26" fill="white"/>
</clipPath>
</defs>
</svg>
