<svg width="25" height="22" viewBox="0 0 25 22" fill="none" xmlns="http://www.w3.org/2000/svg">
<path d="M24.2159 9.1371C24.2359 7.88497 23.1828 6.90388 21.9581 6.98361C20.7971 7.05974 19.9137 8.06232 19.9815 9.22208C18.6389 8.59793 17.0579 8.41008 15.4574 8.71015C14.9092 8.81291 14.3391 8.87044 13.7627 8.88116L12.888 8.89746C12.7397 8.90024 12.5916 8.90369 12.4436 8.90719C11.7224 8.92409 11.041 8.94011 10.3675 8.87613C9.64217 8.80717 8.91773 8.58185 8.25978 8.22278C8.35095 7.93321 8.4776 7.72643 8.62383 7.64675C11.4305 6.11742 13.1447 3.94523 13.5811 1.36502C13.6119 1.18346 13.5461 1.00977 13.4052 0.900502C13.2505 0.780572 12.9797 0.687057 12.144 0.903182C11.7248 1.01163 11.2689 1.17246 11.0527 1.26877C10.8964 1.33838 10.7454 1.41199 10.5973 1.48774C10.6083 1.39378 10.6145 1.30574 10.6199 1.22693C10.6235 1.17372 10.6267 1.12412 10.6317 1.07846C10.6499 0.907557 10.594 0.786042 10.5429 0.713034C10.3226 0.400221 9.84966 0.482581 9.41604 0.604588C9.04176 0.709807 8.63461 0.872447 8.39716 0.987018C7.37488 1.47992 6.81472 2.36028 6.57185 2.84114C6.3723 3.23604 6.19445 3.82596 5.84035 5.00075C5.7558 5.27977 5.66934 5.48561 5.52956 5.79049C5.40509 6.06174 4.9519 6.47589 4.67868 6.68786C3.57596 6.86002 2.54259 7.42215 1.77762 8.2808L0.715258 9.47299C0.266383 9.77847 0 10.2795 0 10.8237C0 10.9363 0.0315 11.5669 0.180414 11.8456C0.296844 12.0664 0.469219 12.2587 0.68075 12.403L0.855859 12.5208C1.18196 12.7419 1.51545 12.9082 1.8754 13.0294L1.93107 13.0479H1.9326C2.25641 13.1513 2.60066 13.2179 2.98162 13.2511C3.06009 13.2583 3.1447 13.2641 3.24882 13.2693C3.36848 13.275 3.49322 13.2778 3.63016 13.2778C3.73816 13.2778 3.8482 13.2747 3.95664 13.2687C4.03648 13.2644 4.11649 13.2582 4.1965 13.2506C5.3404 13.6447 6.06063 14.3009 6.52351 15.3715C6.79071 15.9892 6.92623 16.6625 6.92623 17.3725V19.3095C6.13058 19.5427 5.54761 20.2787 5.54761 21.1487V21.5042H8.35242L9.74695 18.4326C10.0938 18.5727 10.4511 18.6893 10.811 18.7796C11.5779 18.9725 12.3882 19.0498 13.2215 19.0123C13.3188 19.0974 13.4197 19.1779 13.5245 19.2525H11.3859C10.3382 19.2525 9.48888 20.1018 9.48888 21.1495V21.5045H15.9418C16.1381 21.5045 16.2972 21.3454 16.2972 21.1491V21.149C16.2972 20.9527 16.1381 20.7936 15.9418 20.7936H10.2543C10.4057 20.3129 10.8557 19.9634 11.3859 19.9634H15.3949C15.5923 19.9634 15.7523 19.8033 15.7523 19.606V19.5916C15.7523 19.4062 15.6102 19.2547 15.4258 19.2355C15.3175 19.2242 15.21 19.2073 15.1039 19.1848C14.5741 19.0742 14.0781 18.8237 13.6682 18.4592L13.6479 18.4414C13.2902 18.1171 13.0085 17.7103 12.833 17.2644C12.7668 17.0968 12.7148 16.9217 12.6787 16.744C12.6753 16.7272 12.672 16.7105 12.6684 16.6899C12.6334 16.503 12.6157 16.3099 12.6157 16.1158C12.6157 14.4943 13.8523 13.1563 15.4321 12.9954C15.613 12.9769 15.7523 12.8285 15.7523 12.6468V12.6357C15.7523 12.4285 15.5732 12.2668 15.3669 12.2874C13.4256 12.4813 11.9047 14.1243 11.9047 16.1158C11.9047 16.3536 11.9265 16.5907 11.9688 16.8166C11.9727 16.8388 11.9771 16.861 11.982 16.8858C12.0265 17.1042 12.0904 17.3196 12.1718 17.5252C12.28 17.8003 12.4213 18.0631 12.5908 18.3072C12.0379 18.2913 11.4997 18.2198 10.9844 18.09C10.6067 17.9953 10.2324 17.8689 9.87186 17.7144L9.86683 17.7123C9.6361 17.6146 9.36851 17.6887 9.22086 17.8912L9.19734 17.9235L7.89452 20.7932H6.31209C6.46417 20.3013 6.92322 19.9429 7.46435 19.9429H7.70022C7.89655 19.9429 8.05569 19.7838 8.05569 19.5874C8.05569 19.3911 7.89655 19.232 7.70022 19.232H7.63722V17.3725C7.63722 16.5648 7.48207 15.7966 7.17609 15.0893C6.77682 14.1658 6.19566 13.4895 5.38519 13.0134C5.66819 12.9263 5.94453 12.8189 6.21053 12.6915L6.25866 12.6684C6.43568 12.5837 6.51049 12.3714 6.42578 12.1943C6.34101 12.0173 6.12872 11.9424 5.95164 12.0272L5.90297 12.0505C5.55105 12.2191 5.17836 12.3489 4.79577 12.4362C4.5068 12.5017 4.21159 12.5429 3.91792 12.5587C3.822 12.5641 3.7252 12.5667 3.63021 12.5667C3.5047 12.5667 3.39101 12.5642 3.2836 12.5591C3.19041 12.5544 3.11505 12.5493 3.045 12.5429C2.69691 12.5125 2.38853 12.4512 2.10219 12.3552L2.08168 12.3484C1.79955 12.2516 1.53595 12.1197 1.27646 11.9463C1.46912 11.8146 1.62974 11.636 1.73862 11.4235C1.91116 11.0869 1.94228 10.7042 1.82629 10.3462C1.74912 10.1081 1.61175 9.90119 1.43002 9.73921L2.30841 8.75352C3.08142 7.88579 4.17178 7.37189 5.29889 7.34362C5.33717 7.34274 5.37545 7.34236 5.41423 7.34236H5.93026C6.34566 7.3702 6.72509 7.10332 6.83714 6.70148C7.14317 5.60461 8.47853 3.19333 11.342 1.91785C11.7051 1.75614 12.4581 1.52935 12.8352 1.48763C12.3696 3.76842 10.8396 5.62949 8.28362 7.02217C7.61578 7.38611 7.45019 8.39641 7.41092 8.96625C7.40655 9.02942 7.40666 9.1115 7.4101 9.19791C7.41885 9.41819 7.62245 9.57837 7.83825 9.5332C8.00805 9.49765 8.12766 9.34458 8.12049 9.17122C8.11798 9.11019 8.11754 9.05364 8.12022 9.01509C8.12164 8.99447 8.12361 8.97451 8.1253 8.95417C8.81141 9.29657 9.55489 9.5128 10.3002 9.58367C11.0157 9.65176 11.7502 9.63453 12.4604 9.61775C12.6072 9.6143 12.7541 9.61085 12.9013 9.60812L13.776 9.59182C14.3918 9.58034 15.0015 9.51876 15.5885 9.40873C17.5529 9.04068 19.4767 9.47594 20.8667 10.6035C22.079 11.5868 22.7668 13.0254 22.8034 14.6542C22.8045 14.7 22.805 14.746 22.805 14.7921C22.805 17.9893 20.2917 20.6106 17.1369 20.7839C16.9497 20.7942 16.804 20.9508 16.804 21.1383C16.804 21.3425 16.9758 21.5048 17.1795 21.4936C20.7065 21.2981 23.5159 18.3669 23.5159 14.792C23.5159 14.7406 23.5153 14.6892 23.5142 14.6381C23.4853 13.3534 23.0956 12.1721 22.395 11.1959C22.9385 11.1195 23.427 10.8392 23.771 10.3979C24.0515 10.0383 24.2086 9.59319 24.2159 9.1371ZM0.9205 10.2384C1.02741 10.321 1.10737 10.4337 1.15008 10.5656C1.20739 10.7425 1.19175 10.9321 1.10605 11.0994C1.03441 11.2391 0.91793 11.3488 0.779297 11.4146C0.744297 11.2608 0.711047 10.9906 0.711047 10.8237C0.711047 10.6063 0.786515 10.4011 0.9205 10.2384ZM6.15245 6.51056C6.13069 6.58855 6.05593 6.63979 5.97472 6.6329L5.78856 6.63246C5.9465 6.4596 6.0918 6.26978 6.17575 6.08679C6.32554 5.76009 6.42491 5.52307 6.52088 5.20627C6.85234 4.10661 7.03494 3.50078 7.20639 3.16156C7.3693 2.83912 7.84148 2.04396 8.70603 1.62714C9.08802 1.44289 9.61937 1.26653 9.9079 1.21807C9.88865 1.49567 9.85715 1.80361 9.61718 2.06649C7.48759 3.50756 6.43256 5.50656 6.15245 6.51056ZM20.6916 9.19069C20.6435 8.45766 21.168 7.81732 21.8805 7.70707C22.0901 7.90816 22.2186 8.18121 22.2378 8.47439C22.2582 8.786 22.156 9.08695 21.95 9.32172C21.744 9.5566 21.4588 9.69715 21.1469 9.71755C21.0393 9.72477 20.9317 9.71618 20.8261 9.69376C20.8232 9.69185 20.8204 9.69004 20.8175 9.68807C20.7456 9.53243 20.703 9.36569 20.6916 9.19069ZM23.1557 10.027C22.9077 10.3098 22.5643 10.479 22.1886 10.5036C22.0501 10.5128 21.9123 10.5004 21.7781 10.4695C21.7348 10.4262 21.6907 10.3836 21.646 10.3416C21.9675 10.2389 22.2562 10.0508 22.4845 9.79056C22.8158 9.41299 22.9801 8.92907 22.9473 8.42791C22.9353 8.24547 22.8965 8.06806 22.8344 7.90006C23.2093 8.13161 23.4712 8.53444 23.5021 9.0065C23.5267 9.38193 23.4037 9.74435 23.1557 10.027Z" fill="#615D5D"/>
<path d="M3.17137 8.71953C3.016 8.767 2.92872 8.931 2.97641 9.08577C3.0241 9.24048 3.18871 9.32749 3.34408 9.27997C3.49944 9.2325 3.58678 9.06849 3.53904 8.91372C3.4914 8.75901 3.32679 8.67201 3.17137 8.71953Z" fill="#615D5D"/>
</svg>
