<svg width="16" height="22" viewBox="0 0 16 22" fill="none" xmlns="http://www.w3.org/2000/svg">
<path d="M10.8 9.35903V5.00573C11.1771 4.92052 11.5057 4.71791 11.7243 4.43587C11.9428 4.15384 12.0363 3.81174 11.9873 3.4737C11.9382 3.13566 11.7499 2.82488 11.4577 2.5996C11.1655 2.37433 10.7895 2.25003 10.4 2.25H10.3591L10.7848 0.946215C10.8018 0.894111 10.8048 0.839262 10.7934 0.785987C10.7821 0.732712 10.7568 0.682467 10.7195 0.639209C10.6822 0.595951 10.6339 0.560861 10.5785 0.536704C10.523 0.512548 10.462 0.499983 10.4 0.5H5.60003C5.53809 0.499983 5.477 0.512548 5.42157 0.536704C5.36613 0.560861 5.31786 0.595951 5.28056 0.639209C5.24326 0.682467 5.21795 0.732712 5.20661 0.785987C5.19528 0.839262 5.19824 0.894111 5.21526 0.946215L5.64099 2.25H5.60003C5.21058 2.25002 4.83452 2.37432 4.54232 2.5996C4.25011 2.82487 4.06184 3.13565 4.01277 3.4737C3.9637 3.81175 4.05721 4.15385 4.27578 4.43589C4.49434 4.71792 4.82295 4.92053 5.20003 5.00574V9.3592C3.88013 9.83235 2.75409 10.6429 1.96909 11.685C1.18408 12.727 0.776642 13.9521 0.800025 15.2C0.800025 16.8709 1.55859 18.4733 2.90886 19.6548C4.25912 20.8363 6.09047 21.5 8.00003 21.5C9.90958 21.5 11.7409 20.8363 13.0912 19.6548C14.4415 18.4733 15.2 16.8709 15.2 15.2C15.2236 13.952 14.8163 12.7269 14.0312 11.6848C13.2462 10.6426 12.1201 9.83207 10.8 9.35903ZM9.86956 1.2L9.29846 2.95H6.70159L6.13049 1.2H9.86956ZM5.73556 9.92932C5.81302 9.90492 5.87998 9.8602 5.92732 9.80126C5.97465 9.74232 6.00004 9.67204 6.00003 9.6V4.7C6.00004 4.65403 5.9897 4.60852 5.9696 4.56605C5.94951 4.52358 5.92004 4.48499 5.8829 4.45249C5.84575 4.41998 5.80165 4.3942 5.75312 4.37662C5.70458 4.35903 5.65256 4.34999 5.60003 4.35C5.38785 4.35 5.18437 4.27625 5.03434 4.14497C4.88431 4.0137 4.80003 3.83565 4.80003 3.65C4.80003 3.46435 4.88431 3.2863 5.03434 3.15503C5.18437 3.02375 5.38785 2.95 5.60003 2.95H5.86956L6.01526 3.39622C6.03922 3.46933 6.08972 3.53364 6.15913 3.57942C6.22854 3.62521 6.3131 3.64998 6.40003 3.65H9.60003C9.68695 3.64998 9.77151 3.62521 9.84092 3.57942C9.91034 3.53364 9.96083 3.46933 9.98479 3.39622L10.1305 2.95H10.4C10.6122 2.95 10.8157 3.02375 10.9657 3.15503C11.1157 3.2863 11.2 3.46435 11.2 3.65C11.2 3.83565 11.1157 4.0137 10.9657 4.14497C10.8157 4.27625 10.6122 4.35 10.4 4.35C10.3475 4.34999 10.2955 4.35903 10.2469 4.37662C10.1984 4.3942 10.1543 4.41998 10.1172 4.45249C10.08 4.48499 10.0505 4.52358 10.0304 4.56605C10.0103 4.60852 10 4.65403 10 4.7V9.6C10 9.67208 10.0254 9.7424 10.0729 9.80135C10.1203 9.8603 10.1873 9.905 10.2649 9.92932C11.1623 10.2105 11.9732 10.6698 12.6337 11.2712C9.90576 11.1106 8.74353 11.5944 7.61995 12.0662C6.42837 12.567 5.29478 13.0395 2.18767 12.7989C2.52808 12.1364 3.01775 11.5408 3.62737 11.0477C4.23699 10.5546 4.95401 10.1743 5.73556 9.92932ZM8.00003 20.8C6.30324 20.7983 4.6765 20.2078 3.47669 19.1579C2.27687 18.1081 1.60197 16.6847 1.60003 15.2C1.59878 14.6162 1.69687 14.0354 1.89107 13.4769C2.57642 13.5355 3.18264 13.5636 3.71565 13.5636C5.19487 13.6059 6.6608 13.3072 7.96645 12.6974C9.14135 12.2039 10.2595 11.7391 13.325 12.0268C14.0335 12.9684 14.4076 14.0726 14.4 15.2C14.3981 16.6847 13.7232 18.1081 12.5234 19.1579C11.3236 20.2078 9.69682 20.7983 8.00003 20.8Z" fill="#615D5D"/>
</svg>
